<svg xmlns="http://www.w3.org/2000/svg" viewBox="0 0 24 24">
  <path d="M10.7 2.8h2.6l.5 2.2c.6.2 1.1.5 1.6.9l2.1-1 1.8 1.8-1 2.1c.4.5.7 1 .9 1.6l2.2.5v2.6l-2.2.5c-.2.6-.5 1.1-.9 1.6l1 2.1-1.8 1.8-2.1-1c-.5.4-1 .7-1.6.9l-.5 2.2h-2.6l-.5-2.2c-.6-.2-1.1-.5-1.6-.9l-2.1 1-1.8-1.8 1-2.1c-.4-.5-.7-1-.9-1.6l-2.2-.5v-2.6l2.2-.5c.2-.6.5-1.1.9-1.6l-1-2.1 1.8-1.8 2.1 1c.5-.4 1-.7 1.6-.9z" fill="none" stroke="#000000" stroke-width="1.5" stroke-linejoin="round"/>
  <circle cx="12" cy="12" r="3.1" fill="none" stroke="#000000" stroke-width="1.5"/>
</svg>
