<svg xmlns="http://www.w3.org/2000/svg" viewBox="0 0 180 180">
  <ellipse cx="90" cy="141" rx="30" ry="7" fill="#000000" opacity="0.10"/>

  <g>
    <rect x="27" y="58" width="20" height="32" rx="10" fill="#E11D48"/>
    <rect x="31" y="64" width="8" height="20" rx="4" fill="#FDA4AF"/>

    <rect x="133" y="58" width="20" height="32" rx="10" fill="#E11D48"/>
    <rect x="141" y="64" width="8" height="20" rx="4" fill="#FDA4AF"/>
  </g>

  <rect x="35" y="40" width="110" height="76" rx="30" fill="#BE123C"/>
  <rect x="40" y="45" width="100" height="66" rx="26" fill="#E11D48"/>

  <rect x="52" y="59" width="76" height="40" rx="19" fill="#052E2B"/>

  <ellipse cx="74" cy="79" rx="8" ry="11" fill="#FBCFE8"/>
  <ellipse cx="106" cy="79" rx="8" ry="11" fill="#FBCFE8"/>
  <circle cx="71" cy="75" r="3" fill="#FFFFFF"/>
  <circle cx="103" cy="75" r="3" fill="#FFFFFF"/>

  <path d="M80 91c5 5 15 5 20 0" fill="none" stroke="#FDA4AF" stroke-width="4.5" stroke-linecap="round"/>
  <path d="M50 56c6-6 15-9 27-9" fill="none" stroke="#FFF1F2" stroke-width="5" stroke-linecap="round" opacity="0.9"/>

  <circle cx="58" cy="52" r="4.5" fill="#FDA4AF"/>
  <circle cx="122" cy="52" r="4.5" fill="#FDA4AF"/>
</svg>
