<svg xmlns="http://www.w3.org/2000/svg" viewBox="0 0 180 180">
  <ellipse cx="92" cy="150" rx="28" ry="8" fill="#000000" opacity="0.10"/>

  <g transform="translate(0 4)">
    <path d="M91 26v18" stroke="#BE123C" stroke-width="7" stroke-linecap="round"/>
    <circle cx="91" cy="20" r="9" fill="#F59E0B"/>
    <circle cx="91" cy="20" r="4.2" fill="#FDE68A"/>

    <rect x="40" y="42" width="102" height="90" rx="34" fill="#FFE4E6"/>
    <rect x="48" y="50" width="86" height="74" rx="28" fill="#E11D48"/>

    <circle cx="56" cy="63" r="5" fill="#FDA4AF"/>
    <circle cx="126" cy="63" r="5" fill="#FDA4AF"/>
    <rect x="83" y="38" width="16" height="8" rx="4" fill="#FFF1F2"/>

    <rect x="60" y="64" width="62" height="34" rx="17" fill="#0F172A"/>
    <circle cx="78" cy="81" r="9.5" fill="#FBCFE8"/>
    <circle cx="104" cy="81" r="9.5" fill="#FBCFE8"/>
    <circle cx="80" cy="79" r="2.8" fill="#FFFFFF"/>
    <circle cx="106" cy="79" r="2.8" fill="#FFFFFF"/>

    <path d="M74 107c8 7 26 7 34 0" fill="none" stroke="#ECFEFF" stroke-width="5.5" stroke-linecap="round"/>
    <ellipse cx="66" cy="103" rx="5.5" ry="3.8" fill="#F9A8D4" opacity="0.72"/>
    <ellipse cx="116" cy="103" rx="5.5" ry="3.8" fill="#F9A8D4" opacity="0.72"/>

    <path d="M47 83 32 92" stroke="#BE123C" stroke-width="9" stroke-linecap="round"/>
    <path d="M135 83 150 92" stroke="#BE123C" stroke-width="9" stroke-linecap="round"/>
    <circle cx="28" cy="94" r="10" fill="#FFF1F2" stroke="#E11D48" stroke-width="4"/>
    <circle cx="154" cy="94" r="10" fill="#FFF1F2" stroke="#E11D48" stroke-width="4"/>

    <g opacity="0.95">
      <path d="M42 44 46 51 54 52 48 57 50 65 42 61 34 65 36 57 30 52 38 51Z" fill="#FDE68A"/>
      <circle cx="138" cy="48" r="3" fill="#BFDBFE"/>
      <circle cx="128" cy="36" r="2.5" fill="#FBCFE8"/>
    </g>
  </g>
</svg>
